PathFileType	4	(X/Y/Z)	c:/Users/goper/Files/vsCode/490R/osim_files/C12/C12_SSWS_02.trc
DataRate	CameraRate	NumFrames	NumMarkers	Units                	OrigDataRate	OrigDataStartFrame	OrigNumFrames
120.00	120.00	9	36	mm	120.0	908	1210
                Frame#	Time	LPSIS			LASIS			LTH1			LTH2			LTH3			LTH4			LLFE			LMFE			LSH1			LSH2			LSH3			LSH4			LLMAL			LMMAL			LCAL			LMTP5			LTOE			LMTP1			RPSIS			RASIS			RTH1			RTH2			RTH3			RTH4			RLFE			RMFE			RSH1			RSH2			RSH3			RSH4			RLMAL			RMMAL			RCAL			RMTP1			RTOE			RMTP5		
		X1	Y1	Z1	X2	Y2	Z2	X3	Y3	Z3	X4	Y4	Z4	X5	Y5	Z5	X6	Y6	Z6	X7	Y7	Z7	X8	Y8	Z8	X9	Y9	Z9	X10	Y10	Z10	X11	Y11	Z11	X12	Y12	Z12	X13	Y13	Z13	X14	Y14	Z14	X15	Y15	Z15	X16	Y16	Z16	X17	Y17	Z17	X18	Y18	Z18	X19	Y19	Z19	X20	Y20	Z20	X21	Y21	Z21	X22	Y22	Z22	X23	Y23	Z23	X24	Y24	Z24	X25	Y25	Z25	X26	Y26	Z26	X27	Y27	Z27	X28	Y28	Z28	X29	Y29	Z29	X30	Y30	Z30	X31	Y31	Z31	X32	Y32	Z32	X33	Y33	Z33	X34	Y34	Z34	X35	Y35	Z35	X36	Y36	Z36

908	7.55833	-3381.85718	1057.78345	332.99881	-3565.18433	1018.60907	384.45853	-3557.36621	738.70782	442.47034	-3569.68506	697.22723	426.88156	-3609.22314	761.17645	432.81491	-3623.09595	720.60559	428.79047	-3664.31250	547.55463	374.70859	-3653.84912	545.14380	249.81085	-3618.03296	442.26608	393.20483	-3624.05469	395.13269	398.09497	-3677.40601	444.09677	381.60526	-3673.84253	396.76245	385.65744	-3648.68921	105.16418	342.49655	-3655.29321	113.88179	263.42365	-3581.06396	80.27252	307.02869	-3783.77637	53.08379	362.89398	-3831.23218	87.94208	294.56805	0.00000	0.00000	0.00000	0.00000	0.00000	0.00000	-3550.03711	1015.56653	130.95395	-3418.63306	734.59033	73.88846	0.00000	0.00000	0.00000	0.00000	0.00000	0.00000	-3475.18848	681.88177	74.17301	-3397.22876	511.95755	94.63012	-3422.56006	495.18896	224.65797	-3286.15894	489.33878	83.84578	-3255.34253	460.12903	77.86309	0.00000	0.00000	0.00000	-3288.13770	418.63248	72.72297	-3053.97510	252.95135	121.94022	-3078.73462	242.92609	202.10825	-3005.93652	308.49036	163.61972	-3045.78345	104.13078	220.12744	-3076.84106	71.56206	190.47760	-3031.97021	85.06546	116.74877
909	7.56667	-3392.60083	1059.11621	332.95157	-3576.38037	1020.57037	386.36182	-3565.48291	739.09509	443.83200	-3577.64893	698.16132	428.14948	-3617.94312	761.40845	434.44336	0.00000	0.00000	0.00000	-3669.34692	546.54694	375.80585	-3661.35742	545.36951	251.22945	-3622.93555	442.76917	393.73581	-3628.11743	395.40643	398.64197	-3682.31763	443.76190	382.88687	-3678.10522	396.49631	386.74701	-3649.15479	105.29197	342.51608	-3655.92554	114.43279	263.96674	-3581.41968	80.78826	307.05600	-3784.12500	52.76907	363.02356	-3832.00659	87.24576	294.70361	0.00000	0.00000	0.00000	0.00000	0.00000	0.00000	-3561.76172	1017.26782	132.48244	-3435.12939	734.87268	73.39323	0.00000	0.00000	0.00000	0.00000	0.00000	0.00000	-3493.04028	683.47736	73.20215	-3419.02734	511.95270	93.18288	-3445.99658	495.09454	223.33131	-3309.34180	490.56149	82.59021	-3277.29810	461.91306	76.47858	0.00000	0.00000	0.00000	-3310.46924	419.91714	71.21780	-3072.75977	258.32077	120.88675	-3098.24170	247.49330	201.44846	-3029.10034	315.83151	164.13071	-3058.53564	108.94409	219.19019	-3086.30103	72.10854	187.83615	-3041.74146	90.87398	117.54839
910	7.57500	-3403.15308	1060.15710	333.22549	-3587.50635	1022.38892	388.14316	-3572.88477	739.09326	444.88983	-3584.85156	698.80103	429.16418	-3626.24536	761.34717	435.99960	0.00000	0.00000	0.00000	-3674.90723	546.17255	377.54813	-3668.30127	545.69189	252.48645	-3626.85962	442.95282	394.00488	-3631.51831	395.66824	398.96222	-3686.55273	443.43256	384.15048	-3681.92139	396.29614	387.92026	-3649.62524	105.40389	342.54666	-3656.34937	114.68852	264.21826	-3581.79321	81.35705	307.08014	-3784.32764	52.43307	363.23422	-3832.56274	86.52369	294.94962	0.00000	0.00000	0.00000	0.00000	0.00000	0.00000	-3573.33789	1018.97668	133.83549	-3451.19116	735.71393	73.25536	0.00000	0.00000	0.00000	0.00000	0.00000	0.00000	-3508.50830	684.68451	73.37550	-3440.79663	512.52924	91.64398	-3468.89722	496.14594	222.16502	-3332.69629	491.75928	81.37545	-3300.33667	463.54230	75.16947	0.00000	0.00000	0.00000	-3333.17700	421.08862	69.95178	-3092.06006	263.32123	120.43452	-3117.84424	250.84293	200.46843	-3051.75391	322.44522	165.34654	-3073.83374	113.67522	218.37541	-3097.57178	74.46540	184.78458	-3052.79663	97.58916	116.59926
911	7.58333	-3413.44971	1061.10254	333.77487	-3598.31396	1023.99475	389.72968	0.00000	0.00000	0.00000	-3591.63794	699.25031	429.89624	-3634.05078	761.13782	437.45590	-3642.90454	717.87122	429.88174	-3680.23022	545.79791	378.81674	-3674.85620	546.13483	253.63708	-3630.39258	443.31223	394.13382	-3634.47046	395.95261	399.09479	-3690.17114	443.07776	385.38376	-3685.12769	396.02701	389.08575	-3649.99585	105.46976	342.58487	-3656.74756	114.89010	264.38205	-3582.11890	81.82513	307.10565	-3784.50830	52.16982	363.35556	-3833.62524	86.14829	294.46320	0.00000	0.00000	0.00000	0.00000	0.00000	0.00000	-3584.41724	1020.73816	135.08263	-3466.95459	737.02057	73.19677	0.00000	0.00000	0.00000	0.00000	0.00000	0.00000	-3527.13501	687.90039	71.11917	-3462.54102	513.60309	90.04225	-3491.07104	497.76392	220.97537	-3356.10645	493.09900	80.06039	-3323.50073	465.02737	73.87576	0.00000	0.00000	0.00000	-3356.12817	422.32574	68.73145	-3111.32568	268.57452	120.25932	-3139.02271	254.33908	199.70683	-3074.48535	328.43866	167.12805	-3091.90503	118.54545	217.12701	-3112.36597	80.43719	182.22823	-3064.57153	104.77425	115.94215
912	7.59167	-3423.81958	1061.92957	334.56717	-3609.00757	1025.50671	391.24203	0.00000	0.00000	0.00000	-3598.00146	699.73590	430.57004	-3641.43066	760.93188	438.74603	-3649.55151	717.49774	430.95050	-3685.33667	545.46094	379.86966	-3680.93823	546.50305	254.62860	-3633.37036	443.52625	394.04626	-3637.00195	396.15988	399.20328	-3693.55151	442.66714	386.53308	-3688.02319	395.76929	390.29587	-3650.41211	105.62843	342.62488	-3657.14673	115.05962	264.56747	-3582.41479	82.24730	307.11435	-3784.68823	51.92492	363.49445	-3833.90283	85.50728	294.47769	0.00000	0.00000	0.00000	0.00000	0.00000	0.00000	-3595.58374	1022.76447	136.21851	-3482.58862	738.47620	73.32317	0.00000	0.00000	0.00000	0.00000	0.00000	0.00000	-3543.76880	690.60461	70.20512	-3484.41211	515.11694	88.43069	-3512.81201	499.50461	219.82893	-3379.33105	494.42160	78.68976	-3346.60889	466.63028	72.40231	0.00000	0.00000	0.00000	-3378.39844	423.64999	68.36887	-3130.88037	274.13974	120.29350	-3160.51587	258.11551	199.15050	-3096.85913	333.68869	169.12321	-3112.51611	122.66831	216.23619	-3130.95190	84.57726	179.02357	-3081.30493	111.07731	115.70406
913	7.60000	-3434.12109	1062.81116	335.50266	-3619.39795	1026.94312	392.53827	0.00000	0.00000	0.00000	-3604.27539	700.22711	431.11377	-3648.48315	760.80762	439.91617	-3655.95044	717.17908	431.99557	-3690.40918	545.12207	380.61835	-3686.38403	546.61652	255.40764	-3635.68774	444.27808	394.76880	-3639.10327	396.20715	399.19208	-3696.26978	442.20187	387.07004	-3690.61401	395.42407	391.20328	-3650.78687	105.78696	342.64139	-3657.55664	115.23612	264.67755	-3582.67480	82.67599	307.11008	-3784.77319	51.66272	363.61438	-3834.24805	85.07313	294.49954	0.00000	0.00000	0.00000	0.00000	0.00000	0.00000	-3606.48486	1024.89551	137.14217	-3498.13232	740.12347	73.43054	0.00000	0.00000	0.00000	0.00000	0.00000	0.00000	-3560.17041	693.51111	69.34517	-3506.38599	517.00873	86.86165	-3534.69019	501.65631	218.51952	-3402.19629	496.25287	77.26000	-3369.46045	468.38055	70.92956	0.00000	0.00000	0.00000	-3401.05688	424.33929	63.85327	-3151.35791	279.13000	120.63139	-3182.42432	262.05234	199.00414	-3118.09473	337.90445	171.03795	-3135.51929	126.62640	215.00008	-3153.21094	88.89622	176.87689	-3101.49341	116.15247	114.81326
914	7.60833	-3444.34424	1063.86035	336.61664	-3629.79077	1028.47754	393.55225	0.00000	0.00000	0.00000	-3610.30103	701.15582	431.60257	-3655.40991	761.04651	440.93188	-3662.22314	717.34314	433.02109	-3695.28467	545.05511	381.19611	-3691.35278	546.65521	255.96289	-3638.28101	444.52945	394.77380	-3641.24268	396.52448	399.22195	-3699.00562	441.86722	387.93878	-3692.49780	395.05585	391.38477	-3651.13257	106.00851	342.57648	-3657.95044	115.48360	264.75668	-3582.95044	83.13689	307.04327	-3784.85522	51.47034	363.69998	-3834.64966	84.64043	294.50739	0.00000	0.00000	0.00000	0.00000	0.00000	0.00000	-3617.40381	1027.30420	137.98984	-3513.61230	742.05560	73.51623	0.00000	0.00000	0.00000	0.00000	0.00000	0.00000	-3576.49414	696.65820	68.48430	-3528.35205	519.14227	85.24732	0.00000	0.00000	0.00000	-3424.65820	498.37939	76.00819	-3391.86279	470.72318	69.65254	0.00000	0.00000	0.00000	-3423.29590	426.30920	62.75802	-3172.36694	283.19211	121.36971	-3204.60107	265.88510	198.69481	-3138.94165	341.09235	172.95920	-3159.19043	129.60834	213.59946	-3177.34399	92.84629	174.90526	-3124.87085	120.05943	113.74972
915	7.61667	-3454.49756	1065.28992	337.77371	-3639.94849	1030.00244	394.38849	0.00000	0.00000	0.00000	-3616.45874	702.16803	432.14621	-3662.18188	761.58051	441.76834	-3668.51733	717.73749	434.06866	-3699.06909	544.40710	381.02631	-3695.85889	546.49890	256.44281	-3641.15552	445.18976	394.95178	-3642.34985	397.49786	399.91785	-3701.41968	442.16037	388.27753	0.00000	0.00000	0.00000	-3651.49438	106.30159	342.51584	-3658.30835	115.75050	264.77682	-3583.28003	83.74866	306.95285	-3784.99390	51.34517	363.74103	-3834.91968	84.28508	294.49484	0.00000	0.00000	0.00000	0.00000	0.00000	0.00000	-3628.14893	1029.88696	138.70549	-3528.92383	743.97412	73.76003	0.00000	0.00000	0.00000	0.00000	0.00000	0.00000	-3592.79858	699.94104	67.66319	-3550.19971	521.43732	83.77513	-3581.82983	504.07446	216.20207	-3446.53076	501.06256	75.23047	-3413.27539	473.52530	69.13362	0.00000	0.00000	0.00000	-3445.27417	428.90805	61.88423	-3194.05884	286.75153	122.12298	-3226.38623	269.26099	198.80544	-3159.19092	343.35056	174.59964	-3184.35156	131.88847	212.53809	-3203.70581	96.12824	173.54135	-3150.69214	122.93069	112.47204
916	7.62500	-3464.77368	1066.96790	339.02771	-3650.12158	1031.60229	394.97528	0.00000	0.00000	0.00000	-3622.54590	703.35754	432.61874	-3668.99902	762.24841	442.49875	-3675.23828	718.18683	435.57065	-3703.45532	544.50476	381.43805	-3700.00757	546.28754	256.83087	-3643.96265	445.61124	395.33752	-3644.81396	398.06635	400.24939	-3705.01855	441.92972	389.55524	0.00000	0.00000	0.00000	-3651.85083	106.63374	342.47360	-3658.60449	116.02099	264.83304	-3583.53174	84.19089	306.89014	-3785.17847	51.24771	363.78107	-3835.18872	83.90973	294.48160	0.00000	0.00000	0.00000	0.00000	0.00000	0.00000	-3638.81641	1032.66052	139.33928	-3544.43433	746.15033	73.90154	0.00000	0.00000	0.00000	0.00000	0.00000	0.00000	-3609.00708	703.36261	66.79610	-3571.97339	524.08527	82.49675	-3603.22168	506.86240	215.22418	-3470.90063	503.19308	72.85531	-3438.68652	475.48846	67.15610	0.00000	0.00000	0.00000	-3466.86792	431.76706	61.13011	-3216.40796	289.46527	123.03197	-3249.29785	272.13351	199.58881	-3179.33521	344.57608	176.08943	-3211.29297	133.70314	211.73975	-3231.49902	98.79850	172.40393	-3178.12012	124.63396	111.06211
